<svg xmlns="http://www.w3.org/2000/svg" viewBox="0 0 64 64"><title>Asset_Icons_Black</title><g id="Write"><polygon points="52.43 23.5 52.43 56.24 7.75 56.24 7.75 11.57 40.51 11.57 44.76 7.32 3.5 7.32 3.5 60.5 56.68 60.5 56.68 19.24 52.43 23.5"/><rect x="22.26" y="18.5" width="34.11" height="12.37" transform="translate(-5.94 35.03) rotate(-45)"/><path d="M47.69,7.56,51.4,3.85a2.47,2.47,0,0,1,3.45-.27l5.57,5.57a2.47,2.47,0,0,1-.27,3.45l-3.71,3.71Z"/><polygon points="20.79 34.46 21.72 33.53 30.47 42.28 29.54 43.21 17.75 46.26 20.79 34.46"/></g></svg>