<?xml version="1.0" encoding="utf-8"?>
<!-- Generator: Adobe Illustrator 22.0.1, SVG Export Plug-In . SVG Version: 6.00 Build 0)  -->
<svg version="1.1" id="Layer_1" xmlns="http://www.w3.org/2000/svg" xmlns:xlink="http://www.w3.org/1999/xlink" x="0px" y="0px"
	 viewBox="0 0 90 78" style="enable-background:new 0 0 90 78;" xml:space="preserve">
<style type="text/css">
	.st0{fill:#FFD86B;}
	.st1{fill:#4F5858;}
</style>
<title>Asset_Icons_Grey</title>
<path class="st0" d="M-0.1,77.8V5.2c0-2.8,2.3-5,5.2-5h79.7c2.9,0,5.2,2.2,5.2,5v72.5H-0.1V77.8z"/>
<g id="Help">
	<path class="st1" d="M44.9,10c-16,0-29,13-29,29s13,29,29,29s29-13,29-29S61,10,44.9,10z M50,51.2c0,0-8,7.8-11.6,5
		c-2.4-2.7,0.5-8.8,0.5-8.8l3-8.7c0,0,1.5-3.7,1-4.3s-3.6,1-6,3.1l0.1-2.3c0,0,8-7.8,11.6-5c2.4,2.7-0.5,8.8-0.5,8.8l-3,8.7
		c0,0-1.5,3.7-1,4.3s3.6-1,6-3.1L50,51.2z M49.2,28.7c-2.1,0-3.8-1.7-3.8-3.8s1.7-3.8,3.8-3.8s3.8,1.7,3.8,3.8l0,0
		C53,27.1,51.3,28.7,49.2,28.7z"/>
</g>
</svg>
