<svg xmlns="http://www.w3.org/2000/svg" viewBox="0 0 64 64"><defs><style>.cls-1{fill:#4f5858;}</style></defs><title>Asset_Icons_Grey</title><g id="Calandar"><rect class="cls-1" x="13.14" y="26.88" width="7.22" height="7.18"/><rect class="cls-1" x="23.24" y="26.88" width="7.22" height="7.18"/><rect class="cls-1" x="33.34" y="26.88" width="7.22" height="7.18"/><rect class="cls-1" x="43.45" y="26.88" width="7.22" height="7.18"/><rect class="cls-1" x="13.14" y="36.94" width="7.22" height="7.18"/><rect class="cls-1" x="23.24" y="36.94" width="7.22" height="7.18"/><rect class="cls-1" x="33.34" y="36.94" width="7.22" height="7.18"/><rect class="cls-1" x="43.45" y="36.94" width="7.22" height="7.18"/><rect class="cls-1" x="13.14" y="46.99" width="7.22" height="7.18"/><rect class="cls-1" x="23.24" y="46.99" width="7.22" height="7.18"/><rect class="cls-1" x="33.34" y="46.99" width="7.22" height="7.18"/><rect class="cls-1" x="43.45" y="46.99" width="7.22" height="7.18"/><path class="cls-1" d="M56.56,7.55H49.7v9.67a2.29,2.29,0,0,1-2.29,2.27H42.85a2.29,2.29,0,0,1-2.29-2.27V7.55H23.42v9.67a2.29,2.29,0,0,1-2.29,2.27H16.56a2.29,2.29,0,0,1-2.29-2.27V7.55H7.42A2.29,2.29,0,0,0,5.14,9.82v48.9A2.29,2.29,0,0,0,7.42,61H56.56a2.29,2.29,0,0,0,2.29-2.27V9.82A2.29,2.29,0,0,0,56.56,7.55Zm-2.29,48.9H9.71V24.61H54.27Z"/><path class="cls-1" d="M18.14,17.78h1.42a2.15,2.15,0,0,0,2.15-2.14V5.14A2.15,2.15,0,0,0,19.56,3H18.14A2.15,2.15,0,0,0,16,5.14V15.65A2.15,2.15,0,0,0,18.14,17.78Z"/><path class="cls-1" d="M44.42,17.78h1.42A2.15,2.15,0,0,0,48,15.65V5.14A2.15,2.15,0,0,0,45.84,3H44.42a2.15,2.15,0,0,0-2.15,2.14V15.65A2.15,2.15,0,0,0,44.42,17.78Z"/></g></svg>