<?xml version="1.0" encoding="utf-8"?>
<!-- Generator: Adobe Illustrator 21.0.2, SVG Export Plug-In . SVG Version: 6.00 Build 0)  -->
<svg version="1.1" id="Layer_1" xmlns="http://www.w3.org/2000/svg" xmlns:xlink="http://www.w3.org/1999/xlink" x="0px" y="0px"
	 viewBox="0 0 226 100" style="enable-background:new 0 0 226 100;" xml:space="preserve">
<style type="text/css">
	.st0{enable-background:new    ;}
	.st1{fill:#4F5858;}
</style>
<g class="st0">
	<path class="st1" d="M14.3,18.9l8.5,22.8l8.6-22.8h4.9V46h-3.4V23.4h-0.1L24.4,46h-3.1l-8.5-22.6h-0.1V46H9.3V18.9H14.3z"/>
	<path class="st1" d="M55.7,44.7c-1.5,1.1-3.3,1.7-5.5,1.7c-1.6,0-2.9-0.3-4.1-0.8c-1.2-0.5-2.1-1.2-2.9-2.1s-1.4-2-1.8-3.3
		c-0.4-1.3-0.6-2.6-0.7-4.1c0-1.5,0.2-2.9,0.7-4.1c0.5-1.2,1.1-2.3,1.9-3.2c0.8-0.9,1.8-1.6,2.9-2.1c1.1-0.5,2.4-0.8,3.7-0.8
		c1.7,0,3.2,0.4,4.4,1.1s2.1,1.6,2.8,2.8c0.7,1.1,1.2,2.3,1.4,3.6c0.3,1.3,0.4,2.6,0.3,3.8H44.2c0,0.9,0.1,1.7,0.3,2.5
		s0.6,1.5,1.1,2.1s1.2,1.1,1.9,1.4s1.7,0.5,2.8,0.5c1.4,0,2.5-0.3,3.4-1s1.4-1.6,1.7-2.9h3.2C58.2,42,57.2,43.6,55.7,44.7z M55,32.1
		c-0.3-0.7-0.7-1.3-1.2-1.8s-1.1-0.9-1.7-1.2c-0.7-0.3-1.4-0.4-2.2-0.4s-1.6,0.1-2.3,0.4s-1.2,0.7-1.7,1.2s-0.9,1.1-1.1,1.8
		c-0.3,0.7-0.4,1.4-0.5,2.1h11.3C55.4,33.5,55.2,32.8,55,32.1z"/>
	<path class="st1" d="M70.6,26.4v2.9h-3.9v12.2c0,0.4,0,0.7,0.1,0.9s0.2,0.4,0.4,0.5c0.2,0.1,0.4,0.2,0.7,0.2s0.7,0.1,1.2,0.1h1.5
		V46h-2.5c-0.8,0-1.6-0.1-2.1-0.2s-1.1-0.3-1.4-0.6c-0.4-0.3-0.6-0.7-0.8-1.3s-0.3-1.3-0.3-2.2V29.2h-3.3v-2.9h3.3v-5.9h3.2v5.9
		L70.6,26.4L70.6,26.4z"/>
	<path class="st1" d="M91.6,45.9c-0.6,0.3-1.3,0.5-2.3,0.5c-0.8,0-1.5-0.2-2-0.7s-0.7-1.2-0.7-2.3c-0.9,1.1-1.9,1.8-3.1,2.3
		s-2.5,0.7-3.8,0.7c-0.9,0-1.7-0.1-2.5-0.3s-1.5-0.5-2.1-1c-0.6-0.4-1-1-1.4-1.7c-0.3-0.7-0.5-1.5-0.5-2.5c0-1.1,0.2-2,0.6-2.7
		s0.9-1.3,1.5-1.7s1.3-0.8,2.1-1c0.8-0.2,1.6-0.4,2.5-0.6c0.9-0.2,1.7-0.3,2.5-0.4c0.8-0.1,1.5-0.2,2.1-0.4s1.1-0.4,1.4-0.7
		c0.4-0.3,0.5-0.8,0.5-1.4c0-0.7-0.1-1.3-0.4-1.7c-0.3-0.4-0.6-0.8-1-1s-0.9-0.4-1.4-0.5s-1-0.1-1.5-0.1c-1.4,0-2.5,0.3-3.4,0.8
		s-1.4,1.5-1.5,2.9H74c0.1-1.2,0.3-2.2,0.8-3.1c0.5-0.8,1.1-1.5,1.8-2c0.8-0.5,1.6-0.9,2.6-1.1s2-0.3,3.1-0.3c0.9,0,1.8,0.1,2.6,0.2
		c0.9,0.1,1.7,0.4,2.4,0.8c0.7,0.4,1.3,0.9,1.7,1.6s0.6,1.6,0.6,2.8v10.1c0,0.8,0,1.3,0.1,1.7s0.4,0.5,0.9,0.5c0.3,0,0.6-0.1,1-0.2
		C91.6,43.4,91.6,45.9,91.6,45.9z M86.4,35.9c-0.4,0.3-0.9,0.5-1.6,0.7c-0.7,0.1-1.3,0.3-2.1,0.3c-0.7,0.1-1.5,0.2-2.2,0.3
		s-1.4,0.3-2,0.5c-0.6,0.3-1.1,0.6-1.4,1.1c-0.4,0.5-0.6,1.1-0.6,1.9c0,0.5,0.1,1,0.3,1.3c0.2,0.4,0.5,0.7,0.8,0.9s0.7,0.4,1.2,0.5
		s0.9,0.2,1.4,0.2c1.1,0,2-0.1,2.7-0.4c0.8-0.3,1.4-0.7,1.9-1.1c0.5-0.4,0.8-0.9,1.1-1.4s0.3-1,0.3-1.5v-3.3H86.4z"/>
	<path class="st1" d="M108.9,46v-2.7h-0.1c-0.5,1.1-1.4,1.9-2.5,2.4s-2.4,0.7-3.8,0.7c-1.5,0-2.8-0.3-4-0.8
		c-1.1-0.6-2.1-1.3-2.8-2.2c-0.7-0.9-1.3-2-1.7-3.3s-0.6-2.6-0.6-4s0.2-2.7,0.6-4s0.9-2.3,1.7-3.2s1.7-1.7,2.8-2.2
		c1.1-0.5,2.4-0.8,3.9-0.8c0.5,0,1.1,0.1,1.6,0.2c0.6,0.1,1.2,0.3,1.7,0.5c0.6,0.2,1.1,0.6,1.7,0.9c0.5,0.4,1,0.9,1.3,1.5h0.1V18.9
		h3.2V46H108.9z M97.3,39c0.2,0.9,0.6,1.7,1.1,2.3c0.5,0.7,1.1,1.2,1.9,1.6c0.8,0.4,1.7,0.6,2.7,0.6c1.1,0,2-0.2,2.8-0.6
		c0.8-0.4,1.4-1,1.9-1.7s0.8-1.5,1-2.4s0.3-1.8,0.3-2.7c0-1-0.1-1.9-0.3-2.8c-0.2-0.9-0.6-1.7-1.1-2.4c-0.5-0.7-1.1-1.2-1.9-1.7
		s-1.7-0.6-2.8-0.6c-1.1,0-2,0.2-2.8,0.6s-1.4,1-1.8,1.7c-0.5,0.7-0.8,1.5-1,2.4S97,35.1,97,36.1C97,37.3,97.1,38.2,97.3,39z"/>
	<path class="st1" d="M134.5,45.9c-0.6,0.3-1.3,0.5-2.3,0.5c-0.8,0-1.5-0.2-2-0.7s-0.7-1.2-0.7-2.3c-0.9,1.1-1.9,1.8-3.1,2.3
		s-2.5,0.7-3.8,0.7c-0.9,0-1.7-0.1-2.5-0.3s-1.5-0.5-2.1-1s-1-1-1.4-1.7c-0.3-0.7-0.5-1.5-0.5-2.5c0-1.1,0.2-2,0.6-2.7
		s0.9-1.3,1.5-1.7s1.3-0.8,2.1-1c0.8-0.2,1.6-0.4,2.5-0.6c0.9-0.2,1.7-0.3,2.5-0.4c0.8-0.1,1.5-0.2,2.1-0.4s1.1-0.4,1.4-0.7
		s0.5-0.8,0.5-1.4c0-0.7-0.1-1.3-0.4-1.7c-0.3-0.4-0.6-0.8-1-1c-0.4-0.2-0.9-0.4-1.4-0.5s-1-0.1-1.5-0.1c-1.4,0-2.5,0.3-3.4,0.8
		s-1.4,1.5-1.5,2.9h-3.2c0.1-1.2,0.3-2.2,0.8-3.1c0.5-0.8,1.1-1.5,1.8-2s1.6-0.9,2.6-1.1s2-0.3,3.1-0.3c0.9,0,1.8,0.1,2.6,0.2
		c0.9,0.1,1.7,0.4,2.4,0.8s1.3,0.9,1.7,1.6s0.6,1.6,0.6,2.8v10.1c0,0.8,0,1.3,0.1,1.7s0.4,0.5,0.9,0.5c0.3,0,0.6-0.1,1-0.2V45.9z
		 M129.3,35.9c-0.4,0.3-0.9,0.5-1.6,0.7c-0.7,0.1-1.3,0.3-2.1,0.3s-1.5,0.2-2.2,0.3s-1.4,0.3-2,0.5s-1.1,0.6-1.4,1.1
		c-0.4,0.5-0.6,1.1-0.6,1.9c0,0.5,0.1,1,0.3,1.3c0.2,0.4,0.5,0.7,0.8,0.9s0.7,0.4,1.2,0.5s0.9,0.2,1.4,0.2c1.1,0,2-0.1,2.7-0.4
		c0.8-0.3,1.4-0.7,1.9-1.1c0.5-0.4,0.8-0.9,1.1-1.4c0.2-0.5,0.3-1,0.3-1.5v-3.3H129.3z"/>
	<path class="st1" d="M145.9,26.4v2.9H142v12.2c0,0.4,0,0.7,0.1,0.9s0.2,0.4,0.4,0.5s0.4,0.2,0.7,0.2s0.7,0.1,1.2,0.1h1.5V46h-2.5
		c-0.8,0-1.6-0.1-2.1-0.2c-0.6-0.1-1.1-0.3-1.4-0.6s-0.6-0.7-0.8-1.3s-0.3-1.3-0.3-2.2V29.2h-3.3v-2.9h3.3v-5.9h3.2v5.9L145.9,26.4
		L145.9,26.4z"/>
	<path class="st1" d="M166.9,45.9c-0.6,0.3-1.3,0.5-2.3,0.5c-0.8,0-1.5-0.2-2-0.7s-0.7-1.2-0.7-2.3c-0.9,1.1-1.9,1.8-3.1,2.3
		s-2.5,0.7-3.8,0.7c-0.9,0-1.7-0.1-2.5-0.3s-1.5-0.5-2.1-1s-1-1-1.4-1.7c-0.3-0.7-0.5-1.5-0.5-2.5c0-1.1,0.2-2,0.6-2.7
		c0.4-0.7,0.9-1.3,1.5-1.7s1.3-0.8,2.1-1s1.6-0.4,2.5-0.6c0.9-0.2,1.7-0.3,2.5-0.4c0.8-0.1,1.5-0.2,2.1-0.4s1.1-0.4,1.4-0.7
		s0.5-0.8,0.5-1.4c0-0.7-0.1-1.3-0.4-1.7c-0.3-0.4-0.6-0.8-1-1s-0.9-0.4-1.4-0.5s-1-0.1-1.5-0.1c-1.4,0-2.5,0.3-3.4,0.8
		s-1.4,1.5-1.5,2.9h-3.2c0.1-1.2,0.3-2.2,0.8-3.1c0.5-0.8,1.1-1.5,1.8-2s1.6-0.9,2.6-1.1s2-0.3,3.1-0.3c0.9,0,1.8,0.1,2.6,0.2
		c0.9,0.1,1.7,0.4,2.4,0.8s1.3,0.9,1.7,1.6s0.6,1.6,0.6,2.8v10.1c0,0.8,0,1.3,0.1,1.7s0.4,0.5,0.9,0.5c0.3,0,0.6-0.1,1-0.2
		L166.9,45.9L166.9,45.9z M161.7,35.9c-0.4,0.3-0.9,0.5-1.6,0.7c-0.7,0.1-1.3,0.3-2.1,0.3s-1.5,0.2-2.2,0.3s-1.4,0.3-2,0.5
		s-1.1,0.6-1.4,1.1c-0.4,0.5-0.6,1.1-0.6,1.9c0,0.5,0.1,1,0.3,1.3c0.2,0.4,0.5,0.7,0.8,0.9s0.7,0.4,1.2,0.5s0.9,0.2,1.4,0.2
		c1.1,0,2-0.1,2.7-0.4c0.8-0.3,1.4-0.7,1.9-1.1c0.5-0.4,0.8-0.9,1.1-1.4c0.2-0.5,0.3-1,0.3-1.5v-3.3H161.7z"/>
</g>
<g class="st0">
	<path class="st1" d="M14.3,52.9l8.5,22.8l8.6-22.8h4.9V80h-3.4V57.4h-0.1L24.4,80h-3.1l-8.5-22.6h-0.1V80H9.3V52.9H14.3z"/>
	<path class="st1" d="M59.2,79.9c-0.6,0.3-1.3,0.5-2.3,0.5c-0.8,0-1.5-0.2-2-0.7s-0.7-1.2-0.7-2.3c-0.9,1.1-1.9,1.8-3.1,2.3
		c-1.2,0.5-2.5,0.7-3.8,0.7c-0.9,0-1.7-0.1-2.5-0.3c-0.8-0.2-1.5-0.5-2.1-1c-0.6-0.4-1-1-1.4-1.7c-0.3-0.7-0.5-1.5-0.5-2.5
		c0-1.1,0.2-2,0.6-2.7c0.4-0.7,0.9-1.3,1.5-1.7c0.6-0.4,1.3-0.8,2.1-1s1.6-0.4,2.5-0.6s1.7-0.3,2.5-0.4s1.5-0.2,2.1-0.4
		c0.6-0.2,1.1-0.4,1.4-0.7c0.4-0.3,0.5-0.8,0.5-1.4c0-0.7-0.1-1.3-0.4-1.7c-0.3-0.4-0.6-0.8-1-1s-0.9-0.4-1.4-0.5s-1-0.1-1.5-0.1
		c-1.4,0-2.5,0.3-3.4,0.8c-0.9,0.5-1.4,1.5-1.5,2.9h-3.2c0.1-1.2,0.3-2.2,0.8-3.1c0.5-0.8,1.1-1.5,1.8-2c0.8-0.5,1.6-0.9,2.6-1.1
		c1-0.2,2-0.3,3.1-0.3c0.9,0,1.8,0.1,2.6,0.2c0.9,0.1,1.7,0.4,2.4,0.8c0.7,0.4,1.3,0.9,1.7,1.6s0.6,1.6,0.6,2.8v10.1
		c0,0.8,0,1.3,0.1,1.7c0.1,0.4,0.4,0.5,0.9,0.5c0.3,0,0.6-0.1,1-0.2L59.2,79.9L59.2,79.9z M54,69.9c-0.4,0.3-0.9,0.5-1.6,0.7
		c-0.7,0.1-1.3,0.3-2.1,0.3c-0.7,0.1-1.5,0.2-2.2,0.3c-0.7,0.1-1.4,0.3-2,0.5c-0.6,0.3-1.1,0.6-1.4,1.1c-0.4,0.5-0.6,1.1-0.6,1.9
		c0,0.5,0.1,1,0.3,1.3c0.2,0.4,0.5,0.7,0.8,0.9c0.3,0.2,0.7,0.4,1.2,0.5s0.9,0.2,1.4,0.2c1.1,0,2-0.1,2.7-0.4
		c0.8-0.3,1.4-0.7,1.9-1.1s0.8-0.9,1.1-1.4s0.3-1,0.3-1.5v-3.3H54z"/>
	<path class="st1" d="M65.3,60.4v3.1h0.1c1.3-2.4,3.5-3.6,6.4-3.6c1.3,0,2.4,0.2,3.2,0.5c0.9,0.4,1.6,0.8,2.1,1.5
		c0.5,0.6,0.9,1.4,1.1,2.3s0.3,1.8,0.3,2.9V80h-3.2V66.7c0-1.2-0.4-2.2-1.1-2.9c-0.7-0.7-1.7-1.1-2.9-1.1c-1,0-1.8,0.2-2.6,0.5
		c-0.7,0.3-1.3,0.7-1.8,1.3c-0.5,0.6-0.8,1.2-1.1,2c-0.2,0.7-0.4,1.6-0.4,2.5v11h-3.2V60.4H65.3z"/>
	<path class="st1" d="M100.8,79.9c-0.6,0.3-1.3,0.5-2.3,0.5c-0.8,0-1.5-0.2-2-0.7s-0.7-1.2-0.7-2.3c-0.9,1.1-1.9,1.8-3.1,2.3
		s-2.5,0.7-3.8,0.7c-0.9,0-1.7-0.1-2.5-0.3c-0.8-0.2-1.5-0.5-2.1-1c-0.6-0.4-1-1-1.4-1.7c-0.3-0.7-0.5-1.5-0.5-2.5
		c0-1.1,0.2-2,0.6-2.7s0.9-1.3,1.5-1.7c0.6-0.4,1.3-0.8,2.1-1c0.8-0.2,1.6-0.4,2.5-0.6s1.7-0.3,2.5-0.4s1.5-0.2,2.1-0.4
		c0.6-0.2,1.1-0.4,1.4-0.7c0.4-0.3,0.5-0.8,0.5-1.4c0-0.7-0.1-1.3-0.4-1.7c-0.3-0.4-0.6-0.8-1-1s-0.9-0.4-1.4-0.5s-1-0.1-1.5-0.1
		c-1.4,0-2.5,0.3-3.4,0.8C87,64,86.5,65,86.4,66.4h-3.2c0.1-1.2,0.3-2.2,0.8-3.1c0.5-0.8,1.1-1.5,1.8-2c0.8-0.5,1.6-0.9,2.6-1.1
		c1-0.2,2-0.3,3.1-0.3c0.9,0,1.8,0.1,2.6,0.2c0.9,0.1,1.7,0.4,2.4,0.8s1.3,0.9,1.7,1.6s0.6,1.6,0.6,2.8v10.1c0,0.8,0,1.3,0.1,1.7
		s0.4,0.5,0.9,0.5c0.3,0,0.6-0.1,1-0.2C100.8,77.4,100.8,79.9,100.8,79.9z M95.5,69.9c-0.4,0.3-0.9,0.5-1.6,0.7
		c-0.7,0.1-1.3,0.3-2.1,0.3c-0.7,0.1-1.5,0.2-2.2,0.3c-0.7,0.1-1.4,0.3-2,0.5c-0.6,0.3-1.1,0.6-1.4,1.1c-0.4,0.5-0.6,1.1-0.6,1.9
		c0,0.5,0.1,1,0.3,1.3c0.2,0.4,0.5,0.7,0.8,0.9c0.3,0.2,0.7,0.4,1.2,0.5s0.9,0.2,1.4,0.2c1.1,0,2-0.1,2.7-0.4
		c0.8-0.3,1.4-0.7,1.9-1.1s0.8-0.9,1.1-1.4c0.2-0.5,0.3-1,0.3-1.5v-3.3H95.5z"/>
	<path class="st1" d="M118.5,85.5c-1.5,1.6-3.8,2.4-6.9,2.4c-0.9,0-1.8-0.1-2.8-0.3s-1.8-0.5-2.6-1c-0.8-0.5-1.4-1.1-1.9-1.8
		c-0.5-0.7-0.8-1.6-0.8-2.7h3.2c0,0.6,0.2,1.1,0.6,1.5c0.3,0.4,0.8,0.7,1.3,1s1,0.4,1.6,0.6c0.6,0.1,1.1,0.2,1.7,0.2
		c1.1,0,2-0.2,2.7-0.6s1.3-0.9,1.8-1.5s0.8-1.4,1-2.3s0.3-1.9,0.3-3v-1.3h-0.1c-0.6,1.2-1.4,2.1-2.5,2.7s-2.3,0.9-3.6,0.9
		c-1.5,0-2.7-0.3-3.8-0.8c-1.1-0.5-2-1.2-2.7-2.1s-1.3-2-1.7-3.2c-0.4-1.2-0.6-2.5-0.6-3.8c0-1.2,0.2-2.4,0.5-3.6s0.8-2.3,1.5-3.3
		c0.7-1,1.6-1.8,2.8-2.5c1.2-0.6,2.6-1,4.3-1c1.2,0,2.4,0.3,3.4,0.8s1.8,1.4,2.4,2.5l0,0v-2.8h3v18C120.7,81.5,120,84,118.5,85.5z
		 M114.4,76.7c0.7-0.4,1.3-1,1.8-1.7s0.8-1.5,1-2.5c0.2-0.9,0.3-1.8,0.3-2.7c0-0.9-0.1-1.7-0.3-2.5c-0.2-0.8-0.5-1.6-1-2.3
		c-0.4-0.7-1-1.2-1.7-1.6s-1.6-0.6-2.6-0.6s-1.9,0.2-2.7,0.6c-0.7,0.4-1.3,0.9-1.8,1.6s-0.8,1.4-1,2.3s-0.3,1.8-0.3,2.7
		c0,0.9,0.1,1.8,0.3,2.7c0.2,0.9,0.5,1.7,0.9,2.4s1,1.3,1.7,1.7c0.7,0.4,1.6,0.7,2.7,0.7C112.7,77.4,113.6,77.2,114.4,76.7z"/>
	<path class="st1" d="M139.5,78.7c-1.5,1.1-3.3,1.7-5.5,1.7c-1.6,0-2.9-0.3-4.1-0.8c-1.2-0.5-2.1-1.2-2.9-2.1s-1.4-2-1.8-3.3
		s-0.6-2.6-0.7-4.1c0-1.5,0.2-2.9,0.7-4.1s1.1-2.3,1.9-3.2s1.8-1.6,2.9-2.1s2.4-0.8,3.7-0.8c1.7,0,3.2,0.4,4.4,1.1
		c1.2,0.7,2.1,1.6,2.8,2.8c0.7,1.1,1.2,2.3,1.4,3.6c0.3,1.3,0.4,2.6,0.3,3.8h-14.7c0,0.9,0.1,1.7,0.3,2.5c0.2,0.8,0.6,1.5,1.1,2.1
		s1.2,1.1,1.9,1.4s1.7,0.5,2.8,0.5c1.4,0,2.5-0.3,3.4-1s1.5-1.6,1.7-2.9h3.2C141.9,76,141,77.6,139.5,78.7z M138.7,66.1
		c-0.3-0.7-0.7-1.3-1.2-1.8s-1.1-0.9-1.7-1.2c-0.7-0.3-1.4-0.4-2.2-0.4s-1.6,0.1-2.3,0.4c-0.7,0.3-1.2,0.7-1.7,1.2s-0.9,1.1-1.1,1.8
		c-0.3,0.7-0.4,1.4-0.5,2.1h11.3C139.2,67.5,139,66.8,138.7,66.1z"/>
	<path class="st1" d="M148.9,60.4v4.1h0.1c0.8-1.6,1.7-2.8,2.9-3.5s2.6-1.1,4.3-1.1v3.4c-1.3,0-2.4,0.2-3.3,0.5
		c-0.9,0.4-1.6,0.9-2.2,1.6c-0.6,0.7-1,1.5-1.2,2.5c-0.3,1-0.4,2.1-0.4,3.4V80h-3.2V60.4H148.9z"/>
</g>
<g>
	<path class="st1" d="M171.9,64.3c0.7,0,1.4,0.1,2,0.2s1.1,0.3,1.6,0.6c0.4,0.3,0.8,0.7,1,1.2c0.2,0.5,0.4,1.1,0.4,1.8
		c0,0.8-0.2,1.5-0.5,2s-0.9,1-1.6,1.3c1,0.3,1.7,0.8,2.2,1.5c0.5,0.7,0.7,1.5,0.7,2.5c0,0.8-0.2,1.5-0.5,2.1
		c-0.3,0.6-0.7,1.1-1.2,1.4c-0.5,0.4-1.1,0.6-1.8,0.8c-0.7,0.2-1.4,0.3-2.1,0.3h-7.6V64.3H171.9z M171.5,70.7c0.6,0,1.1-0.1,1.5-0.4
		c0.4-0.3,0.6-0.8,0.6-1.4c0-0.4-0.1-0.7-0.2-0.9s-0.3-0.4-0.5-0.5c-0.2-0.1-0.5-0.2-0.8-0.3c-0.3-0.1-0.6-0.1-0.9-0.1H168v3.7
		H171.5z M171.7,77.3c0.3,0,0.7,0,1-0.1c0.3-0.1,0.6-0.2,0.8-0.3c0.2-0.2,0.4-0.4,0.6-0.6c0.1-0.3,0.2-0.6,0.2-1
		c0-0.8-0.2-1.4-0.7-1.7c-0.5-0.3-1.1-0.5-1.8-0.5H168v4.3H171.7z"/>
	<path class="st1" d="M191.8,64.3v2.9h-8.3v3.4h7.6v2.7h-7.6v3.8h8.5V80H180V64.3H191.8z"/>
	<path class="st1" d="M193,67.2v-2.9h12.9v2.9h-4.7V80h-3.5V67.2H193z"/>
	<path class="st1" d="M213.5,64.3l5.9,15.7h-3.6l-1.2-3.5h-5.9l-1.2,3.5H204l5.9-15.7H213.5z M213.7,73.9l-2-5.8h0l-2,5.8H213.7z"/>
</g>
</svg>
