<?xml version="1.0" encoding="utf-8"?>
<!-- Generator: Adobe Illustrator 21.0.2, SVG Export Plug-In . SVG Version: 6.00 Build 0)  -->
<svg version="1.1" id="Layer_1" xmlns="http://www.w3.org/2000/svg" xmlns:xlink="http://www.w3.org/1999/xlink" x="0px" y="0px"
	 viewBox="0 0 251.1 110.1" style="enable-background:new 0 0 251.1 110.1;" xml:space="preserve">
<style type="text/css">
	.st0{fill:#4F5858;}
	.st1{fill:#3EB1C8;}
	.st2{fill:#D8D2C4;}
	.st3{fill:#FFC72C;}
	.st4{fill:#EF3340;}
</style>
<g>
	<g>
		<g>
			<g>
				<path class="st0" d="M76.1,37.5c-0.4-2.6-2.9-4.6-5.8-4.6c-5.2,0-7.2,4.4-7.2,9.1c0,4.4,2,8.9,7.2,8.9c3.6,0,5.6-2.4,6-5.9H82
					c-0.6,6.6-5.1,10.8-11.6,10.8c-8.2,0-13-6.1-13-13.7c0-7.9,4.8-14,13-14c5.8,0,10.7,3.4,11.4,9.5L76.1,37.5L76.1,37.5z"/>
				<path class="st0" d="M84,35.9h5v3.6h0.1c1-2.4,3.6-4.1,6.1-4.1c0.4,0,0.8,0.1,1.1,0.2v4.9c-0.5-0.1-1.3-0.2-1.9-0.2
					c-3.9,0-5.2,2.8-5.2,6.1V55H84V35.9z"/>
				<path class="st0" d="M106.4,35.4c6,0,9.9,4,9.9,10.1s-3.9,10.1-9.9,10.1s-9.9-4-9.9-10.1S100.4,35.4,106.4,35.4z M106.4,51.6
					c3.6,0,4.7-3.1,4.7-6.1c0-3.1-1.1-6.1-4.7-6.1s-4.6,3.1-4.6,6.1C101.8,48.6,102.8,51.6,106.4,51.6z"/>
				<path class="st0" d="M122.4,48.9c0,2.3,2,3.2,4,3.2c1.5,0,3.4-0.6,3.4-2.4c0-1.6-2.2-2.1-6-3c-3-0.7-6.1-1.7-6.1-5.1
					c0-4.9,4.2-6.1,8.3-6.1c4.2,0,8,1.4,8.4,6.1h-5c-0.1-2-1.7-2.6-3.6-2.6c-1.2,0-2.9,0.2-2.9,1.8c0,1.9,3,2.1,6,2.9
					c3.1,0.7,6.1,1.8,6.1,5.4c0,5-4.4,6.7-8.7,6.7c-4.4,0-8.8-1.7-9-6.7h5.1V48.9z"/>
				<path class="st0" d="M141.6,48.9c0,2.3,2,3.2,4,3.2c1.5,0,3.4-0.6,3.4-2.4c0-1.6-2.2-2.1-6-3c-3-0.7-6.1-1.7-6.1-5.1
					c0-4.9,4.2-6.1,8.3-6.1c4.2,0,8,1.4,8.4,6.1h-5c-0.1-2-1.7-2.6-3.6-2.6c-1.2,0-2.9,0.2-2.9,1.8c0,1.9,3,2.1,6,2.9
					c3.1,0.7,6.1,1.8,6.1,5.4c0,5-4.4,6.7-8.7,6.7c-4.4,0-8.8-1.7-9-6.7h5.1V48.9z"/>
				<path class="st0" d="M156.1,35.9h5v3.6h0.1c1-2.4,3.6-4.1,6.1-4.1c0.4,0,0.8,0.1,1.1,0.2v4.9c-0.5-0.1-1.3-0.2-1.9-0.2
					c-3.9,0-5.2,2.8-5.2,6.1V55H156L156.1,35.9L156.1,35.9z"/>
				<path class="st0" d="M174.2,46.8c0.1,3.3,1.8,4.9,4.7,4.9c2.1,0,3.8-1.3,4.1-2.5h4.6c-1.5,4.5-4.6,6.4-9,6.4
					c-6,0-9.8-4.1-9.8-10.1c0-5.7,4-10.1,9.8-10.1c6.5,0,9.7,5.5,9.3,11.4C187.9,46.8,174.2,46.8,174.2,46.8z M182.7,43.5
					c-0.5-2.7-1.6-4.1-4.2-4.1c-3.3,0-4.3,2.6-4.4,4.1H182.7z"/>
				<path class="st0" d="M190.9,39.5h-3.1V36h3.1v-1.5c0-3.4,2.1-5.8,6.4-5.8c0.9,0,1.9,0.1,2.8,0.1v3.9c-0.6-0.1-1.3-0.1-1.9-0.1
					c-1.4,0-2,0.6-2,2.2v1.1h3.6v3.5h-3.6V55h-5.3V39.5z"/>
			</g>
		</g>
	</g>
</g>
<polygon class="st1" points="0,67.9 0,47.4 16.8,41.9 46.6,52.1 "/>
<polygon class="st2" points="29.8,26.1 0,36.4 16.8,41.9 46.6,31.7 "/>
<polygon class="st0" points="16.8,41.9 46.6,31.7 46.6,52.1 "/>
<polygon class="st3" points="46.6,0.2 46.6,20.6 29.8,26.1 0,15.9 "/>
<polygon class="st4" points="29.8,26.1 0,36.4 0,15.9 "/>
<g>
	<path class="st0" d="M71.1,74.4c-0.4-2.3-2.3-3.4-4.5-3.4c-3.8,0-5.4,3.1-5.4,6.5c0,3.7,1.6,6.7,5.5,6.7c2.8,0,4.4-2,4.6-4.6h2.1
		c-0.4,4-2.9,6.4-6.9,6.4c-5,0-7.4-3.7-7.4-8.4c0-4.7,2.7-8.5,7.6-8.5c3.3,0,6.1,1.8,6.6,5.2h-2.2V74.4z"/>
	<path class="st0" d="M80.4,73.7c3.7,0,5.6,2.7,5.6,6.1s-2,6.1-5.6,6.1c-3.7,0-5.6-2.7-5.6-6.1C74.7,76.4,76.7,73.7,80.4,73.7z
		 M80.4,84.2c2,0,3.6-1.6,3.6-4.4s-1.6-4.4-3.6-4.4s-3.6,1.6-3.6,4.4C76.7,82.6,78.4,84.2,80.4,84.2z"/>
	<path class="st0" d="M87.3,74h1.8v1.9l0,0c0.8-1.4,2.1-2.1,3.8-2.1c3.1,0,4,1.8,4,4.2v7.6H95v-7.9c0-1.4-0.9-2.3-2.4-2.3
		c-2.3,0-3.4,1.6-3.4,3.6v6.6h-1.9C87.3,85.6,87.3,74,87.3,74z"/>
	<path class="st0" d="M101.6,74h2.3v1.7h-2.3v7.2c0,0.9,0.2,1,1.4,1h0.9v1.7h-1.5c-2,0-2.8-0.4-2.8-2.5v-7.4h-2V74h2v-3.5h1.9
		L101.6,74L101.6,74z"/>
	<path class="st0" d="M115,81.9c-0.5,2.6-2.4,4-5,4c-3.7,0-5.5-2.6-5.6-6.1c0-3.5,2.3-6,5.5-6c4.1,0,5.4,3.8,5.3,6.7h-8.7
		c-0.1,2,1.1,3.8,3.6,3.8c1.6,0,2.7-0.8,3-2.3L115,81.9L115,81.9z M113.1,78.7c-0.1-1.8-1.5-3.3-3.3-3.3c-2,0-3.2,1.5-3.3,3.3H113.1
		z"/>
	<path class="st0" d="M116.7,74h1.8v1.9l0,0c0.8-1.4,2.1-2.1,3.8-2.1c3.1,0,4,1.8,4,4.2v7.6h-1.9v-7.9c0-1.4-0.9-2.3-2.4-2.3
		c-2.3,0-3.4,1.6-3.4,3.6v6.6h-1.9V74z"/>
	<path class="st0" d="M130.9,74h2.3v1.7h-2.3v7.2c0,0.9,0.2,1,1.4,1h0.9v1.7h-1.5c-2,0-2.8-0.4-2.8-2.5v-7.4h-2V74h2v-3.5h1.9V74
		H130.9z"/>
</g>
<g>
	<path class="st0" d="M140.5,69.7h7.6c3,0,4.9,1.6,4.9,4.2c0,1.9-0.9,3.5-2.8,4.1l0,0c1.9,0.4,2.2,1.7,2.4,3.3
		c0.1,1.6,0,3.3,0.9,4.4h-2.4c-0.6-0.7-0.3-2.4-0.6-4c-0.2-1.6-0.6-2.9-2.7-2.9h-5.2v6.9h-2.1V69.7z M147.1,77.1
		c2,0,3.7-0.5,3.7-2.9c0-1.6-0.9-2.7-2.9-2.7h-5.3v5.6H147.1z"/>
	<path class="st0" d="M164.3,82.1c-0.5,2.6-2.4,4-5,4c-3.7,0-5.5-2.6-5.6-6.1c0-3.5,2.3-6,5.5-6c4.1,0,5.4,3.8,5.3,6.7h-8.7
		c-0.1,2,1.1,3.8,3.6,3.8c1.6,0,2.7-0.8,3-2.3L164.3,82.1L164.3,82.1z M162.5,78.8c-0.1-1.8-1.5-3.3-3.3-3.3c-2,0-3.2,1.5-3.3,3.3
		H162.5z"/>
	<path class="st0" d="M176.3,84.8c0,3.8-1.7,5.7-5.4,5.7c-2.2,0-4.7-0.9-4.8-3.4h1.9c0.1,1.4,1.8,1.9,3,1.9c2.5,0,3.5-1.8,3.5-4.4
		v-0.8l0,0c-0.6,1.4-2.2,2.1-3.6,2.1c-3.5,0-5.2-2.7-5.2-5.9c0-2.7,1.3-6.1,5.4-6.1c1.5,0,2.8,0.7,3.5,1.9l0,0v-1.7h1.8v10.7H176.3z
		 M174.4,79.7c0-2-0.9-4.2-3.3-4.2c-2.4,0-3.4,2-3.4,4.2c0,2.1,0.8,4.4,3.3,4.4C173.5,84.2,174.4,81.9,174.4,79.7z"/>
	<path class="st0" d="M180.3,72.1h-1.9v-2.3h1.9V72.1z M178.4,74.2h1.9v11.6h-1.9V74.2z"/>
	<path class="st0" d="M184,82.1c0.1,1.7,1.6,2.2,3.1,2.2c1.2,0,2.8-0.3,2.8-1.7c0-1.5-1.9-1.7-3.8-2.2c-1.9-0.4-3.8-1.1-3.8-3.3
		c0-2.3,2.3-3.3,4.3-3.3c2.6,0,4.6,0.8,4.8,3.6h-1.9c-0.1-1.5-1.4-2-2.7-2c-1.1,0-2.5,0.3-2.5,1.5c0,1.4,2,1.6,3.8,2
		c1.9,0.4,3.8,1.1,3.8,3.3c0,2.8-2.6,3.7-4.9,3.7c-2.6,0-4.8-1.1-4.9-3.9h1.9V82.1z"/>
	<path class="st0" d="M196,74.2h2.3v1.7H196v7.2c0,0.9,0.2,1,1.4,1h0.9v1.7h-1.5c-2,0-2.8-0.4-2.8-2.5v-7.4h-2v-1.7h2v-3.5h1.9
		L196,74.2L196,74.2z"/>
	<path class="st0" d="M200,74.2h1.8v2.4l0,0c0.9-1.9,2.2-2.8,4.3-2.7v2c-3.1,0-4.2,1.8-4.2,4.7v5.2H200C200,85.8,200,74.2,200,74.2z
		"/>
	<path class="st0" d="M217.4,85.7c-0.3,0.2-0.8,0.3-1.4,0.3c-1,0-1.6-0.5-1.6-1.8c-1.1,1.2-2.5,1.8-4.1,1.8c-2.1,0-3.8-0.9-3.8-3.3
		c0-2.6,2-3.2,3.9-3.6c2.1-0.4,3.9-0.3,3.9-1.7c0-1.7-1.4-1.9-2.6-1.9c-1.6,0-2.8,0.5-2.9,2.2h-1.9c0.1-2.9,2.3-3.9,4.9-3.9
		c2.1,0,4.4,0.5,4.4,3.2v6c0,0.9,0,1.3,0.6,1.3c0.2,0,0.3,0,0.6-0.1L217.4,85.7L217.4,85.7z M214.3,79.8c-0.7,0.5-2.2,0.6-3.5,0.8
		c-1.3,0.2-2.3,0.7-2.3,2.1c0,1.3,1.1,1.7,2.2,1.7c2.5,0,3.6-1.6,3.6-2.6V79.8z"/>
	<path class="st0" d="M221.1,74.2h2.3v1.7h-2.3v7.2c0,0.9,0.2,1,1.4,1h0.9v1.7h-1.5c-2,0-2.8-0.4-2.8-2.5v-7.4h-2v-1.7h2v-3.5h1.9
		v3.5H221.1z"/>
	<path class="st0" d="M227.2,72.1h-1.9v-2.3h1.9V72.1z M225.3,74.2h1.9v11.6h-1.9V74.2z"/>
	<path class="st0" d="M234.2,73.9c3.7,0,5.6,2.7,5.6,6.1s-2,6.1-5.6,6.1c-3.7,0-5.6-2.7-5.6-6.1S230.5,73.9,234.2,73.9z M234.2,84.4
		c2,0,3.6-1.6,3.6-4.4s-1.6-4.4-3.6-4.4s-3.6,1.6-3.6,4.4S232.2,84.4,234.2,84.4z"/>
	<path class="st0" d="M241.5,74.2h1.8V76l0,0c0.8-1.4,2.1-2.1,3.8-2.1c3.1,0,4,1.8,4,4.2v7.6h-1.9v-7.9c0-1.4-0.9-2.3-2.4-2.3
		c-2.3,0-3.4,1.6-3.4,3.6v6.6h-1.9L241.5,74.2L241.5,74.2z"/>
</g>
</svg>
