<?xml version="1.0" encoding="utf-8"?>
<!-- Generator: Adobe Illustrator 21.0.2, SVG Export Plug-In . SVG Version: 6.00 Build 0)  -->
<svg version="1.1" id="Layer_1" xmlns="http://www.w3.org/2000/svg" xmlns:xlink="http://www.w3.org/1999/xlink" x="0px" y="0px"
	 viewBox="0 0 175 100" style="enable-background:new 0 0 175 100;" xml:space="preserve">
<style type="text/css">
	.st0{display:none;}
	.st1{display:inline;fill:#4F5858;}
	.st2{fill:#4F5858;}
	.st3{font-family:'HelveticaNeue';}
	.st4{font-size:38px;}
</style>
<g class="st0">
	<path class="st1" d="M15.6,34.5c4.2,0,7.4,1.1,9.7,3.2s3.4,5.4,3.4,9.7c0,2.3-0.3,4.3-0.8,6.1s-1.3,3.2-2.4,4.4s-2.4,2.1-4.1,2.8
		c-1.6,0.6-3.6,1-5.9,1H6.3V34.5H15.6z M15.9,58.6c0.4,0,0.9,0,1.5-0.1s1.3-0.2,1.9-0.5s1.4-0.6,2-1c0.7-0.5,1.3-1.1,1.8-1.9
		c0.5-0.8,1-1.8,1.3-2.9c0.3-1.2,0.5-2.6,0.5-4.3c0-1.6-0.2-3.1-0.5-4.4c-0.3-1.3-0.8-2.4-1.6-3.3c-0.7-0.9-1.7-1.6-2.8-2.1
		c-1.1-0.5-2.5-0.7-4.2-0.7H9.9v21.1L15.9,58.6L15.9,58.6z"/>
	<path class="st1" d="M46.4,60.4C45,61.5,43.1,62,40.9,62c-1.6,0-2.9-0.3-4.1-0.8c-1.2-0.5-2.1-1.2-2.9-2.1c-0.8-0.9-1.4-2-1.8-3.3
		c-0.4-1.3-0.6-2.6-0.7-4.1c0-1.5,0.2-2.9,0.7-4.1c0.5-1.2,1.1-2.3,1.9-3.2c0.8-0.9,1.8-1.6,2.9-2.1s2.4-0.8,3.7-0.8
		c1.7,0,3.2,0.4,4.4,1.1c1.2,0.7,2.1,1.6,2.8,2.8c0.7,1.1,1.2,2.3,1.4,3.6c0.3,1.3,0.4,2.6,0.3,3.8H34.9c0,0.9,0.1,1.7,0.3,2.5
		s0.6,1.5,1.1,2.1s1.2,1.1,1.9,1.4c0.8,0.4,1.7,0.5,2.8,0.5c1.4,0,2.5-0.3,3.4-1c0.9-0.6,1.5-1.6,1.7-2.9h3.2
		C48.8,57.6,47.9,59.3,46.4,60.4z M45.6,47.7c-0.3-0.7-0.7-1.3-1.2-1.8s-1.1-0.9-1.7-1.2c-0.7-0.3-1.4-0.4-2.2-0.4s-1.6,0.1-2.3,0.4
		c-0.7,0.3-1.2,0.7-1.7,1.2s-0.9,1.1-1.1,1.8c-0.3,0.7-0.4,1.4-0.5,2.1h11.3C46.1,49.2,45.9,48.4,45.6,47.7z"/>
	<path class="st1" d="M56.3,42v2.7h0.1c0.5-1.1,1.4-1.9,2.5-2.4s2.4-0.7,3.8-0.7c1.5,0,2.8,0.3,4,0.8c1.1,0.6,2.1,1.3,2.8,2.3
		c0.7,0.9,1.3,2,1.7,3.3s0.6,2.6,0.6,4s-0.2,2.7-0.6,4c-0.4,1.2-0.9,2.3-1.7,3.2c-0.7,0.9-1.7,1.7-2.8,2.2c-1.1,0.5-2.4,0.8-3.9,0.8
		c-0.5,0-1-0.1-1.6-0.2c-0.6-0.1-1.2-0.3-1.8-0.5s-1.1-0.5-1.7-0.9c-0.5-0.4-1-0.9-1.3-1.5h-0.1v10.1H53V42H56.3z M67.9,48.9
		c-0.2-0.9-0.6-1.7-1.1-2.3c-0.5-0.7-1.1-1.2-1.9-1.6c-0.8-0.4-1.7-0.6-2.7-0.6c-1.1,0-2,0.2-2.8,0.6c-0.8,0.4-1.4,1-1.9,1.7
		s-0.8,1.5-1,2.4s-0.3,1.8-0.3,2.7c0,1,0.1,1.9,0.3,2.8c0.2,0.9,0.6,1.7,1.1,2.4s1.1,1.2,1.9,1.7s1.7,0.6,2.9,0.6
		c1.1,0,2-0.2,2.8-0.6c0.7-0.4,1.3-1,1.8-1.7s0.8-1.5,1-2.4s0.3-1.8,0.3-2.8C68.2,50.7,68.1,49.8,67.9,48.9z"/>
	<path class="st1" d="M75,47.8c0.4-1.3,1-2.3,1.8-3.3c0.8-0.9,1.8-1.7,3-2.2s2.6-0.8,4.1-0.8c1.6,0,2.9,0.3,4.1,0.8s2.2,1.3,3,2.2
		s1.4,2,1.8,3.3s0.6,2.6,0.6,4s-0.2,2.8-0.6,4s-1,2.3-1.8,3.2s-1.8,1.6-3,2.2c-1.2,0.5-2.6,0.8-4.1,0.8s-2.9-0.3-4.1-0.8
		s-2.2-1.2-3-2.2s-1.4-2-1.8-3.2s-0.6-2.6-0.6-4C74.4,50.4,74.6,49,75,47.8z M78.3,55c0.3,0.9,0.8,1.7,1.3,2.3
		c0.6,0.6,1.2,1.1,2,1.4c0.7,0.3,1.5,0.5,2.4,0.5s1.6-0.2,2.4-0.5c0.7-0.3,1.4-0.8,2-1.4c0.6-0.6,1-1.4,1.3-2.3s0.5-2,0.5-3.2
		s-0.2-2.2-0.5-3.2c-0.3-0.9-0.8-1.7-1.3-2.3c-0.6-0.6-1.2-1.1-2-1.4c-0.7-0.3-1.5-0.5-2.4-0.5s-1.6,0.2-2.4,0.5
		c-0.7,0.3-1.4,0.8-2,1.4c-0.6,0.6-1,1.4-1.3,2.3c-0.3,0.9-0.5,2-0.5,3.2S78,54.1,78.3,55z"/>
	<path class="st1" d="M99.7,57.2c0.3,0.5,0.7,0.9,1.2,1.2s1.1,0.5,1.7,0.6s1.3,0.2,1.9,0.2c0.5,0,1,0,1.6-0.1s1.1-0.2,1.5-0.4
		c0.5-0.2,0.9-0.5,1.2-0.9c0.3-0.4,0.5-0.9,0.5-1.5c0-0.8-0.3-1.5-1-1.9c-0.6-0.4-1.4-0.8-2.4-1c-1-0.3-2-0.5-3.1-0.7
		s-2.1-0.5-3.1-0.9s-1.7-0.9-2.4-1.7c-0.6-0.7-1-1.7-1-3c0-1,0.2-1.8,0.7-2.5c0.4-0.7,1-1.3,1.7-1.7s1.5-0.8,2.4-1s1.7-0.3,2.6-0.3
		c1.1,0,2.1,0.1,3.1,0.3s1.8,0.5,2.5,1s1.3,1.1,1.7,1.9c0.4,0.8,0.7,1.8,0.8,3h-3.2c-0.1-0.6-0.2-1.2-0.5-1.6s-0.6-0.8-1.1-1
		c-0.4-0.3-0.9-0.4-1.4-0.6c-0.5-0.1-1-0.2-1.6-0.2c-0.5,0-1,0-1.5,0.1s-0.9,0.2-1.3,0.4s-0.7,0.4-1,0.8c-0.3,0.3-0.4,0.7-0.4,1.2
		c0,0.6,0.2,1,0.6,1.4s0.9,0.7,1.5,0.9s1.3,0.4,2.1,0.6c0.8,0.2,1.5,0.3,2.3,0.5s1.6,0.4,2.4,0.6c0.8,0.3,1.5,0.6,2.1,1
		s1.1,0.9,1.4,1.6c0.4,0.6,0.6,1.4,0.6,2.4c0,1.2-0.2,2.2-0.7,3s-1.1,1.4-1.9,1.9s-1.7,0.8-2.7,1s-2,0.3-3,0.3
		c-1.1,0-2.1-0.1-3.1-0.3s-1.9-0.6-2.6-1.1c-0.8-0.5-1.4-1.2-1.8-2.1c-0.5-0.8-0.7-1.9-0.8-3.1h3.2C99.3,56.1,99.4,56.7,99.7,57.2z"
		/>
	<path class="st1" d="M116.5,38.4v-4h3.2v4H116.5z M119.7,42v19.6h-3.2V42H119.7z"/>
	<path class="st1" d="M133.1,42v2.9h-3.9V57c0,0.4,0,0.7,0.1,0.9s0.2,0.4,0.4,0.5s0.4,0.2,0.7,0.2s0.7,0.1,1.2,0.1h1.5v2.9h-2.5
		c-0.8,0-1.6-0.1-2.1-0.2c-0.6-0.1-1.1-0.3-1.4-0.6c-0.4-0.3-0.6-0.7-0.8-1.3c-0.2-0.6-0.3-1.3-0.3-2.2V44.8h-3.3V42h3.3v-5.9h3.2
		V42H133.1z"/>
	<path class="st1" d="M136.2,47.8c0.4-1.3,1-2.3,1.8-3.3c0.8-0.9,1.8-1.7,3-2.2s2.6-0.8,4.1-0.8c1.6,0,2.9,0.3,4.1,0.8
		c1.2,0.5,2.2,1.3,3,2.2s1.4,2,1.8,3.3s0.6,2.6,0.6,4s-0.2,2.8-0.6,4s-1,2.3-1.8,3.2s-1.8,1.6-3,2.2c-1.2,0.5-2.6,0.8-4.1,0.8
		s-2.9-0.3-4.1-0.8c-1.2-0.5-2.2-1.2-3-2.2s-1.4-2-1.8-3.2s-0.6-2.6-0.6-4C135.6,50.4,135.8,49,136.2,47.8z M139.5,55
		c0.3,0.9,0.8,1.7,1.3,2.3c0.6,0.6,1.2,1.1,2,1.4c0.7,0.3,1.5,0.5,2.4,0.5s1.6-0.2,2.4-0.5c0.7-0.3,1.4-0.8,2-1.4
		c0.6-0.6,1-1.4,1.3-2.3s0.5-2,0.5-3.2s-0.2-2.2-0.5-3.2c-0.3-0.9-0.8-1.7-1.3-2.3c-0.6-0.6-1.2-1.1-2-1.4c-0.7-0.3-1.5-0.5-2.4-0.5
		s-1.6,0.2-2.4,0.5c-0.7,0.3-1.4,0.8-2,1.4c-0.6,0.6-1,1.4-1.3,2.3c-0.3,0.9-0.5,2-0.5,3.2S139.2,54.1,139.5,55z"/>
	<path class="st1" d="M161.4,42v4.1h0.1c0.8-1.6,1.7-2.8,2.9-3.5c1.1-0.8,2.6-1.1,4.3-1.1v3.4c-1.3,0-2.4,0.2-3.3,0.5
		c-0.9,0.4-1.6,0.9-2.2,1.6c-0.6,0.7-1,1.5-1.2,2.5c-0.3,1-0.4,2.1-0.4,3.4v8.7h-3.2V42H161.4z"/>
</g>
<text transform="matrix(1 0 0 1 6.3001 46.0004)"><tspan x="0" y="0" class="st2 st3 st4">Metadata</tspan><tspan x="0" y="34" class="st2 st3 st4">Manager</tspan></text>
</svg>
