<svg xmlns="http://www.w3.org/2000/svg" xmlns:xlink="http://www.w3.org/1999/xlink" viewBox="0 0 64 64"><defs><style>.cls-1{fill:#4f5858;}</style><symbol id="Alert" data-name="Alert" viewBox="0 0 57 50.92"><path class="cls-1" d="M55.81,42.16,33.56,3.61C32.17,1.2,30.33,0,28.5,0s-3.67,1.2-5.06,3.61L1.19,42.16c-2.78,4.82-.5,8.76,5.06,8.76H50.75C56.32,50.92,58.59,47,55.81,42.16ZM28.5,43.25a2.89,2.89,0,1,1,2.89-2.89A2.89,2.89,0,0,1,28.5,43.25ZM31.39,31.6a2.51,2.51,0,0,1-2.5,2.5h-.77a2.51,2.51,0,0,1-2.5-2.5V15.81a2.51,2.51,0,0,1,2.5-2.5h.77a2.51,2.51,0,0,1,2.5,2.5Z"/></symbol></defs><title>Asset_Icons_Grey</title><g id="Caution"><use id="Alert-3" data-name="Alert" width="57" height="50.92" transform="translate(3.5 6.36) scale(1.01 1.01)" xlink:href="#Alert"/></g></svg>