<?xml version="1.0" encoding="utf-8"?>
<!-- Generator: Adobe Illustrator 21.0.2, SVG Export Plug-In . SVG Version: 6.00 Build 0)  -->
<svg version="1.1" id="Help_Flag" xmlns="http://www.w3.org/2000/svg" xmlns:xlink="http://www.w3.org/1999/xlink" x="0px" y="0px"
	 viewBox="0 0 40 32" style="enable-background:new 0 0 40 32;" xml:space="preserve">
<style type="text/css">
	.st0{fill:#FFC852;}
	.st1{fill:#4F5858;}
</style>
<path class="st0" d="M0,32V5c0-2.8,2.2-5,5-5h30c2.8,0,5,2.2,5,5v27H0z"/>
<g id="Help_Icon">
	<path class="st1" d="M20,3.9c-6.6,0-12,5.4-12,12s5.4,12,12,12S32,22.6,32,16S26.7,3.9,20,3.9z M22.1,21c0,0-3.3,3.2-4.8,2.1
		c-1-1.1,0.2-3.7,0.2-3.7l1.2-3.6c0,0,0.6-1.5,0.4-1.8c-0.2-0.2-1.5,0.4-2.5,1.3l0-1c0,0,3.3-3.2,4.8-2.1c1,1.1-0.2,3.7-0.2,3.7
		l-1.2,3.6c0,0-0.6,1.5-0.4,1.8c0.2,0.2,1.5-0.4,2.5-1.3L22.1,21z M21.8,11.7c-0.9,0-1.6-0.7-1.6-1.6s0.7-1.6,1.6-1.6
		s1.6,0.7,1.6,1.6l0,0C23.3,11,22.6,11.7,21.8,11.7z"/>
</g>
</svg>
