<svg id="Load_Throbber_Grey" data-name="Load Throbber Grey" xmlns="http://www.w3.org/2000/svg" viewBox="0 0 64 64"><defs><style>.cls-1,.cls-10,.cls-2,.cls-3,.cls-4,.cls-5,.cls-6,.cls-7,.cls-8,.cls-9{fill:#4f5858;}.cls-2{opacity:0.6;}.cls-3{opacity:0.3;}.cls-4{opacity:0.9;}.cls-5{opacity:0.5;}.cls-6{opacity:0.2;}.cls-7{opacity:0.8;}.cls-8{opacity:0.4;}.cls-9{opacity:0.1;}.cls-10{opacity:0.7;}</style></defs><title>Asset_Load_Throbber</title><rect class="cls-1" x="30" y="4" width="3" height="18"/><rect class="cls-2" x="30" y="43" width="3" height="18"/><rect class="cls-3" x="42" y="31" width="18" height="3"/><rect class="cls-4" x="3" y="31" width="18" height="3"/><rect class="cls-1" x="20.18" y="6.65" width="3" height="18" transform="translate(-4.93 13.04) rotate(-30.22)"/><rect class="cls-5" x="39.82" y="40.35" width="3" height="18" transform="translate(-19.22 27.5) rotate(-30.22)"/><rect class="cls-6" x="39.35" y="21.18" width="18" height="3" transform="translate(-4.85 27.42) rotate(-30.22)"/><rect class="cls-7" x="5.65" y="40.82" width="18" height="3" transform="translate(-19.31 13.13) rotate(-30.22)"/><rect class="cls-1" x="13.14" y="13.7" width="3" height="18" transform="translate(-12.35 23.96) rotate(-59.85)"/><rect class="cls-8" x="46.86" y="33.3" width="3" height="18" transform="translate(-12.5 62.87) rotate(-59.85)"/><rect class="cls-9" x="32.3" y="14.14" width="18" height="3" transform="translate(7.03 43.49) rotate(-59.85)"/><rect class="cls-10" x="12.7" y="47.86" width="18" height="3" transform="translate(-31.88 43.33) rotate(-59.85)"/></svg>