<?xml version="1.0" encoding="utf-8"?>
<!-- Generator: Adobe Illustrator 22.0.1, SVG Export Plug-In . SVG Version: 6.00 Build 0)  -->
<svg version="1.1" id="Caution" xmlns="http://www.w3.org/2000/svg" xmlns:xlink="http://www.w3.org/1999/xlink" x="0px" y="0px"
	 viewBox="0 0 64 64" style="enable-background:new 0 0 64 64;" xml:space="preserve">
<style type="text/css">
	.st0{fill:#FFC72C;}
</style>
<path class="st0" d="M4.7,48.8l22.2-38.6c1.4-2.4,3.2-3.6,5.1-3.6c1.8,0,3.7,1.2,5.1,3.6l22.2,38.6c2.8,4.8,0.5,8.8-5.1,8.8H9.8
	C4.2,57.5,1.9,53.6,4.7,48.8z M32,49.9c1.6,0,2.9-1.3,2.9-2.9s-1.3-2.9-2.9-2.9c-1.6,0-2.9,1.3-2.9,2.9l0,0
	C29.1,48.6,30.4,49.9,32,49.9z M29.1,38.2c0,1.4,1.1,2.5,2.5,2.5h0.8c1.4,0,2.5-1.1,2.5-2.5V22.4c0-1.4-1.1-2.5-2.5-2.5h-0.8
	c-1.4,0-2.5,1.1-2.5,2.5V38.2z"/>
</svg>
