<svg xmlns="http://www.w3.org/2000/svg" viewBox="0 0 64 64"><defs><style>.cls-1,.cls-2,.cls-3{fill:#ffc72c;}.cls-1{opacity:0.08;}.cls-3{opacity:0.04;}</style></defs><title>Asset_Empty_Box</title><g id="Empty_Box_Yellow" data-name="Empty Box Yellow"><polygon class="cls-1" points="32 20 32 38 51 29 32 20"/><polygon class="cls-2" points="32 39.54 32 58 51 49 51 39.33 34.65 48.05 32 39.54"/><polygon class="cls-2" points="54 37 35 47 32 38 51 29 54 37"/><polygon class="cls-2" points="51 29 32 20 38 12 57 22 51 29"/><polygon class="cls-3" points="32 20 32 38 13 29 32 20"/><polygon class="cls-2" points="32 39.54 32 58 13 49 13 39.33 29.35 48.05 32 39.54"/><polygon class="cls-2" points="10 37 29 47 32 38 13 29 10 37"/><polygon class="cls-2" points="13 29 32 20 26 12 7 22 13 29"/></g></svg>