<svg id="Layer_1" data-name="Layer 1" xmlns="http://www.w3.org/2000/svg" viewBox="0 0 331.13 215.08"><defs><style>.cls-1{fill:#3eb1c8;}.cls-2{fill:#d8d2c4;}.cls-3{fill:#4f5858;}.cls-4{fill:#ffc72c;}.cls-5{fill:#ef3340;}</style></defs><title>Crossref_Logo_Stacked_RGB</title><polygon class="cls-1" points="185 157.55 185 110 224.16 97.11 293.36 120.88 185 157.55"/><polygon class="cls-2" points="254.2 60.44 185 84.21 224.16 97.11 293.36 73.33 254.2 60.44"/><polygon class="cls-3" points="224.16 97.11 293.36 73.33 293.36 120.88 224.16 97.11"/><polygon class="cls-4" points="293.36 0 293.36 47.55 254.2 60.44 185 36.67 293.36 0"/><polygon class="cls-5" points="254.2 60.44 185 84.21 185 36.67 254.2 60.44"/><path class="cls-3" d="M299,363c-0.86-6.1-6.7-10.75-13.41-10.75-12.12,0-16.68,10.32-16.68,21.06,0,10.23,4.56,20.55,16.68,20.55,8.25,0,12.89-5.67,13.93-13.75h13.07c-1.38,15.3-11.95,25.1-27,25.1-19,0-30.17-14.18-30.17-31.89,0-18.22,11.17-32.41,30.17-32.41,13.5,0,24.84,7.91,26.48,22.09H299Z" transform="translate(-255.38 -190.1)"/><path class="cls-3" d="M317.27,359.28h11.6v8.25H329a15.71,15.71,0,0,1,14.18-9.46,9.1,9.1,0,0,1,2.66.43v11.35a22.28,22.28,0,0,0-4.38-.43c-8.94,0-12,6.45-12,14.27v20H317.27V359.28Z" transform="translate(-255.38 -190.1)"/><path class="cls-3" d="M369.16,358.08c14,0,23,9.28,23,23.47s-9,23.38-23,23.38-23-9.28-23-23.38S355.23,358.08,369.16,358.08Zm0,37.65c8.34,0,10.83-7.14,10.83-14.18s-2.49-14.27-10.83-14.27-10.75,7.14-10.75,14.27S360.91,395.73,369.16,395.73Z" transform="translate(-255.38 -190.1)"/><path class="cls-3" d="M406.38,389.28c0.09,5.33,4.56,7.48,9.37,7.48,3.52,0,8-1.38,8-5.67,0-3.7-5.07-5-13.84-6.88-7-1.55-14.1-4-14.1-11.86,0-11.35,9.8-14.27,19.34-14.27,9.71,0,18.65,3.27,19.6,14.18h-11.6c-0.34-4.73-4-6-8.34-6-2.75,0-6.79.52-6.79,4.13,0,4.38,6.88,5,13.84,6.62,7.13,1.63,14.1,4.21,14.1,12.46,0,11.69-10.14,15.47-20.29,15.47-10.32,0-20.37-3.87-20.89-15.65h11.6Z" transform="translate(-255.38 -190.1)"/><path class="cls-3" d="M450.94,389.28c0.09,5.33,4.56,7.48,9.37,7.48,3.52,0,8-1.38,8-5.67,0-3.7-5.07-5-13.84-6.88-7-1.55-14.1-4-14.1-11.86,0-11.35,9.8-14.27,19.34-14.27,9.71,0,18.65,3.27,19.6,14.18h-11.6c-0.34-4.73-4-6-8.34-6-2.75,0-6.79.52-6.79,4.13,0,4.38,6.88,5,13.84,6.62,7.13,1.63,14.1,4.21,14.1,12.46,0,11.69-10.14,15.47-20.29,15.47-10.32,0-20.37-3.87-20.89-15.65h11.6Z" transform="translate(-255.38 -190.1)"/><path class="cls-3" d="M484.47,359.28h11.6v8.25h0.17a15.71,15.71,0,0,1,14.18-9.46,9.1,9.1,0,0,1,2.66.43v11.35a22.28,22.28,0,0,0-4.38-.43c-8.94,0-12,6.45-12,14.27v20H484.47V359.28Z" transform="translate(-255.38 -190.1)"/><path class="cls-3" d="M526.43,384.47c0.34,7.74,4.13,11.26,10.92,11.26,4.9,0,8.85-3,9.63-5.76h10.75c-3.44,10.49-10.75,15-20.8,15-14,0-22.69-9.63-22.69-23.38,0-13.32,9.2-23.47,22.69-23.47,15.13,0,22.44,12.72,21.58,26.39H526.43Zm19.86-7.74c-1.12-6.19-3.78-9.46-9.71-9.46-7.74,0-10,6-10.14,9.46h19.86Z" transform="translate(-255.38 -190.1)"/><path class="cls-3" d="M565.19,367.44h-7.31v-8.17h7.31v-3.44c0-7.82,4.9-13.5,14.87-13.5,2.15,0,4.38.26,6.45,0.34v9.11a37.87,37.87,0,0,0-4.47-.26c-3.27,0-4.64,1.38-4.64,5.07v2.67h8.42v8.17H577.4v36.28H565.19V367.44Z" transform="translate(-255.38 -190.1)"/></svg>