<?xml version="1.0" encoding="utf-8"?>
<!-- Generator: Adobe Illustrator 22.0.1, SVG Export Plug-In . SVG Version: 6.00 Build 0)  -->
<svg version="1.1" id="Layer_1" xmlns="http://www.w3.org/2000/svg" xmlns:xlink="http://www.w3.org/1999/xlink" x="0px" y="0px"
	 viewBox="0 0 32 21" style="enable-background:new 0 0 32 21;" xml:space="preserve">
<style type="text/css">
	.st0{fill:#BFBFBF;}
</style>
<path id="cloud-up-blue" class="st0" d="M11.7,5.4c-1.3-1.1-3.1-1.3-4.6-0.3C5.8,6,5,7.6,5.2,9.2c0,0-5.2,1-5.2,6.4
	C0.1,20.9,5.7,21,5.7,21h8.7v-5.6h-2.8l4.6-5l4.6,5h-2.8V21h8c0,0,5.2,0,5.9-5.1c0.3-5.6-5-6.7-5-6.7s0.6-8.2-6.9-9.2
	C13.7-0.6,11.7,5.4,11.7,5.4z"/>
</svg>
