<svg xmlns="http://www.w3.org/2000/svg" viewBox="0 0 64 64">
    <title>Asset_Icons_White</title>
    <defs>
        <style>.cls-1{fill:#ffffff;}</style>
    </defs>
    <g id="Help">
        <path class="cls-1" d="M32,3A29,29,0,1,0,61,32,29,29,0,0,0,32,3Zm5.11,41.22s-8,7.76-11.65,5c-2.38-2.66.48-8.82.48-8.82l3-8.69s1.47-3.71,1-4.27-3.6.95-6,3.1l.12-2.28s8-7.76,11.65-5c2.38,2.66-.48,8.82-.48,8.82l-3,8.69s-1.47,3.71-1,4.27,3.6-.95,6-3.1Zm-.84-22.48A3.79,3.79,0,1,1,40.06,18,3.79,3.79,0,0,1,36.27,21.74Z"/>
    </g>
</svg>